<svg width="16" height="16" viewBox="0 0 16 16" fill="none" xmlns="http://www.w3.org/2000/svg"><defs><clipPath id="a"><path fill="#fff" d="M0 0h16v16H0z"/></clipPath></defs><g clip-path="url(#a)" opacity=".34"><path d="M12.714 12.714A6.647 6.647 0 0 0 14.667 8a6.65 6.65 0 0 0-1.953-4.715A6.647 6.647 0 0 0 8 1.333c-1.84 0-3.508.746-4.714 1.952A6.649 6.649 0 0 0 1.333 8c0 1.84.747 3.507 1.953 4.714A6.647 6.647 0 0 0 8 14.666c1.84 0 3.508-.746 4.714-1.952z" stroke="#353535" stroke-linejoin="round"/><path d="M8 9.541V8.208a2 2 0 1 0-2-2" stroke="#353535" stroke-linejoin="round" stroke-linecap="round"/><path d="M7.91 12.36a.742.742 0 1 0 .001-1.484.742.742 0 0 0 0 1.484z" fill-rule="evenodd" fill="#353535"/></g></svg>